#N canvas 248 183 1068 603 10;
#X obj 87 430 osc~ 440;
#X obj 944 303 dac~;
#X floatatom 86 200 5 0 0 0 - - -;
#X obj 87 397 +~;
#X obj 140 261 *~ 1;
#X obj 186 297 *~ 1;
#X obj 141 314 osc~;
#X obj 141 355 *~;
#X floatatom 161 238 5 0 0 0 - - -;
#X floatatom 208 265 5 0 0 0 - - -;
#X obj 87 229 sig~;
#X obj 87 458 *~ 0.333;
#X obj 944 114 receive~ out;
#X obj 943 270 *~;
#X obj 1026 115 vsl 15 128 0 127 0 0 empty empty empty 0 -9 0 10 -262144
-1 -1 0 1;
#X obj 970 178 / 127;
#X obj 966 239 line~;
#X msg 969 206 \$1 50;
#X obj 88 20 dumpOSC 10000;
#X obj 87 488 send~ out;
#X obj 88 119 unpack 0 0 0;
#X obj 89 49 OSCroute /blob;
#X obj 90 78 OSCroute /0 /1 /2;
#X obj 272 434 osc~ 440;
#X floatatom 271 204 5 0 0 0 - - -;
#X obj 272 401 +~;
#X obj 325 265 *~ 1;
#X obj 371 301 *~ 1;
#X obj 326 318 osc~;
#X obj 326 359 *~;
#X floatatom 346 242 5 0 0 0 - - -;
#X floatatom 393 269 5 0 0 0 - - -;
#X obj 272 233 sig~;
#X obj 272 462 *~ 0.333;
#X obj 272 492 send~ out;
#X obj 273 123 unpack 0 0 0;
#X obj 467 435 osc~ 440;
#X floatatom 466 205 5 0 0 0 - - -;
#X obj 467 402 +~;
#X obj 520 266 *~ 1;
#X obj 566 302 *~ 1;
#X obj 521 319 osc~;
#X obj 521 360 *~;
#X floatatom 541 243 5 0 0 0 - - -;
#X floatatom 588 270 5 0 0 0 - - -;
#X obj 467 234 sig~;
#X obj 467 463 *~ 0.333;
#X obj 467 493 send~ out;
#X obj 468 124 unpack 0 0 0;
#X text 978 89 main volume;
#X obj 695 388 sendOSC;
#X msg 789 346 connect localhost 9600;
#X msg 756 268 send /moveRange \$1 \$2;
#X obj 756 210 bondo;
#X obj 756 237 pack 0 0;
#X floatatom 756 170 5 0 0 0 - - -;
#X floatatom 797 169 5 0 0 0 - - -;
#X msg 641 267 send /size \$1;
#X floatatom 640 230 5 8 128 0 - - -;
#X obj 789 315 loadbang;
#X obj 640 166 loadbang;
#X msg 640 195 40;
#X msg 728 132 send /isUseSandboxVisual \$1;
#X obj 728 108 tgl 15 0 empty empty empty 17 7 0 10 -262144 -1 -1 1
1;
#X connect 0 0 11 0;
#X connect 2 0 10 0;
#X connect 3 0 0 0;
#X connect 4 0 5 0;
#X connect 4 0 6 0;
#X connect 5 0 7 1;
#X connect 6 0 7 0;
#X connect 7 0 3 1;
#X connect 8 0 4 1;
#X connect 9 0 5 1;
#X connect 10 0 4 0;
#X connect 10 0 3 0;
#X connect 11 0 19 0;
#X connect 12 0 13 0;
#X connect 13 0 1 0;
#X connect 13 0 1 1;
#X connect 14 0 15 0;
#X connect 15 0 17 0;
#X connect 16 0 13 1;
#X connect 17 0 16 0;
#X connect 18 0 21 0;
#X connect 20 0 8 0;
#X connect 20 1 2 0;
#X connect 20 2 9 0;
#X connect 21 0 22 0;
#X connect 22 0 20 0;
#X connect 22 1 35 0;
#X connect 22 2 48 0;
#X connect 23 0 33 0;
#X connect 24 0 32 0;
#X connect 25 0 23 0;
#X connect 26 0 27 0;
#X connect 26 0 28 0;
#X connect 27 0 29 1;
#X connect 28 0 29 0;
#X connect 29 0 25 1;
#X connect 30 0 26 1;
#X connect 31 0 27 1;
#X connect 32 0 26 0;
#X connect 32 0 25 0;
#X connect 33 0 34 0;
#X connect 35 0 30 0;
#X connect 35 1 24 0;
#X connect 35 2 31 0;
#X connect 36 0 46 0;
#X connect 37 0 45 0;
#X connect 38 0 36 0;
#X connect 39 0 40 0;
#X connect 39 0 41 0;
#X connect 40 0 42 1;
#X connect 41 0 42 0;
#X connect 42 0 38 1;
#X connect 43 0 39 1;
#X connect 44 0 40 1;
#X connect 45 0 39 0;
#X connect 45 0 38 0;
#X connect 46 0 47 0;
#X connect 48 0 43 0;
#X connect 48 1 37 0;
#X connect 48 2 44 0;
#X connect 51 0 50 0;
#X connect 52 0 50 0;
#X connect 53 0 54 0;
#X connect 53 1 54 1;
#X connect 54 0 52 0;
#X connect 55 0 53 0;
#X connect 56 0 53 1;
#X connect 57 0 50 0;
#X connect 58 0 57 0;
#X connect 59 0 51 0;
#X connect 60 0 61 0;
#X connect 61 0 58 0;
#X connect 62 0 50 0;
#X connect 63 0 62 0;
