#N canvas 0 22 567 309 10;
#X obj 149 187 pack 0 0;
#X floatatom 147 124 5 0 0 0 - - -;
#X floatatom 196 124 5 0 0 0 - - -;
#X msg 149 215 send /position \$1 \$2;
#X obj 86 290 sendOSC;
#X msg 84 89 connect localhost 9000;
#X floatatom 305 184 5 0 0 0 - - -;
#X msg 305 216 send /rad \$1;
#X obj 149 163 bondo;
#X obj 84 61 loadbang;
#X obj 307 53 adc~;
#X obj 306 82 peakamp~ 30;
#X floatatom 305 111 5 0 0 0 - - -;
#X obj 305 142 * 100;
#X connect 0 0 3 0;
#X connect 1 0 8 0;
#X connect 2 0 8 1;
#X connect 3 0 4 0;
#X connect 5 0 4 0;
#X connect 6 0 7 0;
#X connect 7 0 4 0;
#X connect 8 0 0 0;
#X connect 8 1 0 1;
#X connect 9 0 5 0;
#X connect 10 0 11 0;
#X connect 11 0 12 0;
#X connect 12 0 13 0;
#X connect 13 0 6 0;
